# xmcd
#
# Track frame offsets:
#	150
#	13776
#	27228
#	40637
#	54135
#	67748
#	81162
#	94614
#	108416
#	121743
#	135279
#	148422
#	162135
#	175667
#	189321
#	202829
#	216249
#	229742
#	243521
#	256918
#	269993
#
# Disc length: 3781 seconds
#
# Revision: 1
# Processed by: cddbd v1.5.2PL0 Copyright (c) Steve Scherf et al.
# Submitted via: EZCDAudioConverter 3.1.7.1
#
DISCID=160ec315
DTITLE=David Walliams - Awful Auntie
DYEAR=2014
DGENRE=Books and Spoken
TTITLE0=Disc 3 Track 1
TTITLE1=Disc 3 Track 2
TTITLE2=Disc 3 Track 3
TTITLE3=Disc 3 Track 4
TTITLE4=Disc 3 Track 5
TTITLE5=Disc 3 Track 6
TTITLE6=Disc 3 Track 7
TTITLE7=Disc 3 Track 8
TTITLE8=Disc 3 Track 9
TTITLE9=Disc 3 Track 10
TTITLE10=Disc 3 Track 11
TTITLE11=Disc 3 Track 12
TTITLE12=Disc 3 Track 13
TTITLE13=Disc 3 Track 14
TTITLE14=Disc 3 Track 15
TTITLE15=Disc 3 Track 16
TTITLE16=Disc 3 Track 17
TTITLE17=Disc 3 Track 18
TTITLE18=Disc 3 Track 19
TTITLE19=Disc 3 Track 20
TTITLE20=Disc 3 Track 21
EXTD=
EXTT0=
EXTT1=
EXTT2=
EXTT3=
EXTT4=
EXTT5=
EXTT6=
EXTT7=
EXTT8=
EXTT9=
EXTT10=
EXTT11=
EXTT12=
EXTT13=
EXTT14=
EXTT15=
EXTT16=
EXTT17=
EXTT18=
EXTT19=
EXTT20=
PLAYORDER=
